<svg width="204" height="204" viewBox="0 0 204 204" fill="none" xmlns="http://www.w3.org/2000/svg">
<path d="M102 0L190.335 48.96H13.6654L102 0Z" fill="white"/>
<path d="M102 204L190.335 155.04H13.6654L102 204Z" fill="white"/>
<rect x="12.2402" y="48.96" width="179.52" height="106.08" fill="white"/>
<path d="M27 138.899L99 180H103.114L171 143.009V97.7976L150.429 83.4122L171 66.9718L99 23.8155C98.3143 22.4455 95.7086 20.5274 90.7714 23.8155C85.8343 27.1036 46.2 51.2161 27 62.8614V108.073L47.5714 122.458L27 138.899Z" fill="#286A94" stroke="#286A94"/>
<path d="M57.1216 135.675L134.584 86.7146L160.038 130.203L104.038 160.155L57.1216 135.675Z" fill="white"/>
<path d="M159.948 100.175L159.598 130.544L133.072 86.0303L159.948 100.175Z" fill="white"/>
<path d="M146.706 62.2267L69.2439 111.187L43.79 67.6984L99.7902 37.7468L146.706 62.2267Z" fill="white"/>
<path d="M43.8803 97.7265L44.2298 67.3577L70.7562 111.871L43.8803 97.7265Z" fill="white"/>
</svg>
